<?xml version="1.0" encoding="UTF-8"?>
<svg xmlns="http://www.w3.org/2000/svg" width="380" height="380" viewBox="0 0 380 380">
  <circle cx="190" cy="190" r="186.5" fill="none" stroke="#DC0000" stroke-width="7"/>
  <circle cx="190" cy="190" r="183.5" fill="none" stroke="#DC0000" stroke-width="7"/>
  <polygon points="190 148.97 199.64673156062406 176.72241308831835 229.02184886359015 177.3210327207959 205.60873954543607 195.07158691168164 214.11682890156018 223.1939672792041 190 206.412 165.88317109843985 223.1939672792041 174.39126045456393 195.07158691168164 150.97815113640985 177.32103272079593 180.35326843937594 176.72241308831838" fill="#DC0000"/>
  <g>
<g transform="translate(63.990721506872305, 209.95790904983264) rotate(-99) scale(1, 1.3)"><text x="0" y="0" font-size="44" font-family="FangSong, STSong, sans-serif" fill="#DC0000" text-anchor="middle" dominant-baseline="middle">株</text></g><g transform="translate(73.44987051395698, 138.10853907638938) rotate(-66) scale(1, 1.3)"><text x="0" y="0" font-size="44" font-family="FangSong, STSong, sans-serif" fill="#DC0000" text-anchor="middle" dominant-baseline="middle">洲</text></g><g transform="translate(120.51495191278288, 83.00240894152276) rotate(-33) scale(1, 1.3)"><text x="0" y="0" font-size="44" font-family="FangSong, STSong, sans-serif" fill="#DC0000" text-anchor="middle" dominant-baseline="middle">市</text></g><g transform="translate(190, 62.41999999999999) rotate(0) scale(1, 1.3)"><text x="0" y="0" font-size="44" font-family="FangSong, STSong, sans-serif" fill="#DC0000" text-anchor="middle" dominant-baseline="middle">中</text></g><g transform="translate(259.4850480872172, 83.0024089415228) rotate(33) scale(1, 1.3)"><text x="0" y="0" font-size="44" font-family="FangSong, STSong, sans-serif" fill="#DC0000" text-anchor="middle" dominant-baseline="middle">心</text></g><g transform="translate(306.55012948604303, 138.10853907638943) rotate(66.00000000000001) scale(1, 1.3)"><text x="0" y="0" font-size="44" font-family="FangSong, STSong, sans-serif" fill="#DC0000" text-anchor="middle" dominant-baseline="middle">医</text></g><g transform="translate(316.0092784931277, 209.95790904983267) rotate(99) scale(1, 1.3)"><text x="0" y="0" font-size="44" font-family="FangSong, STSong, sans-serif" fill="#DC0000" text-anchor="middle" dominant-baseline="middle">院</text></g>  </g>
  <g transform="translate(190, 292.575) scale(1, 2)">    <text x="0" y="0" font-size="30" font-family="FangSong, STSong, sans-serif" fill="#DC0000" text-anchor="middle" dominant-baseline="middle" font-weight="bold">结直肠肛门外一区</text>  </g>
</svg>