<?xml version="1.0" encoding="UTF-8"?>
<svg xmlns="http://www.w3.org/2000/svg" width="380" height="380" viewBox="0 0 380 380">
  <circle cx="190" cy="190" r="186.5" fill="none" stroke="#DC0000" stroke-width="7"/>
  <circle cx="190" cy="190" r="183.5" fill="none" stroke="#DC0000" stroke-width="7"/>
  <polygon points="190 148.97 199.64673156062406 176.72241308831835 229.02184886359015 177.3210327207959 205.60873954543607 195.07158691168164 214.11682890156018 223.1939672792041 190 206.412 165.88317109843985 223.1939672792041 174.39126045456393 195.07158691168164 150.97815113640985 177.32103272079593 180.35326843937594 176.72241308831838" fill="#DC0000"/>
  <g>
<text x="81.07" y="190" font-size="44" font-family="FangSong, STSong, sans-serif" fill="#DC0000" text-anchor="middle" dominant-baseline="middle" transform="rotate(270, 81.07, 190)">株</text><text x="95.66385276576108" y="135.53500000000003" font-size="44" font-family="FangSong, STSong, sans-serif" fill="#DC0000" text-anchor="middle" dominant-baseline="middle" transform="rotate(300, 95.66385276576108, 135.53500000000003)">洲</text><text x="135.53499999999994" y="95.6638527657611" font-size="44" font-family="FangSong, STSong, sans-serif" fill="#DC0000" text-anchor="middle" dominant-baseline="middle" transform="rotate(330, 135.53499999999994, 95.6638527657611)">市</text><text x="189.99999999999997" y="81.07" font-size="44" font-family="FangSong, STSong, sans-serif" fill="#DC0000" text-anchor="middle" dominant-baseline="middle" transform="rotate(360, 189.99999999999997, 81.07)">中</text><text x="244.46499999999992" y="95.66385276576105" font-size="44" font-family="FangSong, STSong, sans-serif" fill="#DC0000" text-anchor="middle" dominant-baseline="middle" transform="rotate(389.99999999999994, 244.46499999999992, 95.66385276576105)">心</text><text x="284.33614723423887" y="135.53499999999994" font-size="44" font-family="FangSong, STSong, sans-serif" fill="#DC0000" text-anchor="middle" dominant-baseline="middle" transform="rotate(419.99999999999994, 284.33614723423887, 135.53499999999994)">医</text><text x="298.93" y="189.99999999999997" font-size="44" font-family="FangSong, STSong, sans-serif" fill="#DC0000" text-anchor="middle" dominant-baseline="middle" transform="rotate(450, 298.93, 189.99999999999997)">院</text>  </g>
  <text x="190" y="292.575" font-size="28" font-family="FangSong, STSong, sans-serif" fill="#DC0000" text-anchor="middle" dominant-baseline="middle" font-weight="bold">结直肠肛门外一区</text>
</svg>